<svg id="Layer_1" data-name="Layer 1" xmlns="http://www.w3.org/2000/svg" xmlns:xlink="http://www.w3.org/1999/xlink" viewBox="0 0 900 900"><defs><style>.cls-1{fill:url(#linear-gradient);}.cls-2{fill:url(#linear-gradient-2);}.cls-3{fill:url(#linear-gradient-3);}.cls-4{fill:url(#linear-gradient-4);}.cls-5{fill:url(#linear-gradient-5);}.cls-6{fill:url(#linear-gradient-6);}.cls-7{fill:url(#linear-gradient-7);}.cls-8{fill:url(#linear-gradient-8);}.cls-9{fill:url(#linear-gradient-9);}.cls-10{fill:url(#linear-gradient-10);}.cls-11{fill:url(#linear-gradient-11);}.cls-12{fill:url(#linear-gradient-12);}.cls-13{fill:url(#linear-gradient-13);}.cls-14{fill:url(#linear-gradient-14);}.cls-15{fill:url(#linear-gradient-15);}.cls-16{fill:url(#linear-gradient-16);}.cls-17{fill:url(#linear-gradient-17);}.cls-18{fill:url(#linear-gradient-18);}.cls-19{fill:url(#linear-gradient-19);}.cls-20{fill:url(#linear-gradient-20);}.cls-21{fill:url(#linear-gradient-21);}.cls-22{fill:url(#linear-gradient-22);}.cls-23{fill:url(#linear-gradient-23);}.cls-24{fill:url(#linear-gradient-24);}.cls-25{fill:url(#linear-gradient-25);}.cls-26{fill:url(#linear-gradient-26);}.cls-27{fill:url(#linear-gradient-27);}.cls-28{fill:url(#linear-gradient-28);}.cls-29{fill:url(#linear-gradient-29);}.cls-30{fill:url(#linear-gradient-30);}.cls-31{fill:url(#linear-gradient-31);}.cls-32{fill:url(#linear-gradient-32);}.cls-33{fill:url(#linear-gradient-33);}.cls-34{fill:url(#linear-gradient-34);}.cls-35{fill:url(#linear-gradient-35);}.cls-36{fill:url(#linear-gradient-36);}.cls-37{fill:url(#linear-gradient-37);}.cls-38{fill:url(#linear-gradient-38);}.cls-39{fill:url(#linear-gradient-39);}.cls-40{fill:url(#linear-gradient-40);}.cls-41{fill:url(#linear-gradient-41);}.cls-42{fill:url(#linear-gradient-42);}.cls-43{fill:url(#linear-gradient-43);}</style><linearGradient id="linear-gradient" x1="593.55" y1="704.68" x2="51.46" y2="426.36" gradientUnits="userSpaceOnUse"><stop offset="0" stop-color="#384798"/><stop offset="0.1" stop-color="#584e84"/><stop offset="0.25" stop-color="#855867"/><stop offset="0.4" stop-color="#ab6050"/><stop offset="0.56" stop-color="#c8663e"/><stop offset="0.71" stop-color="#dc6a30"/><stop offset="0.86" stop-color="#e96d29"/><stop offset="1" stop-color="#ed6e26"/></linearGradient><linearGradient id="linear-gradient-2" x1="583.43" y1="724.4" x2="41.34" y2="446.08" xlink:href="#linear-gradient"/><linearGradient id="linear-gradient-3" x1="596.13" y1="699.66" x2="54.04" y2="421.34" xlink:href="#linear-gradient"/><linearGradient id="linear-gradient-4" x1="572.84" y1="745.03" x2="30.75" y2="466.71" xlink:href="#linear-gradient"/><linearGradient id="linear-gradient-5" x1="583.3" y1="724.64" x2="41.22" y2="446.32" xlink:href="#linear-gradient"/><linearGradient id="linear-gradient-6" x1="594.1" y1="703.62" x2="52.01" y2="425.3" xlink:href="#linear-gradient"/><linearGradient id="linear-gradient-7" x1="576.21" y1="738.47" x2="34.12" y2="460.15" xlink:href="#linear-gradient"/><linearGradient id="linear-gradient-8" x1="575.71" y1="739.43" x2="33.62" y2="461.11" xlink:href="#linear-gradient"/><linearGradient id="linear-gradient-9" x1="580.29" y1="730.51" x2="38.2" y2="452.19" xlink:href="#linear-gradient"/><linearGradient id="linear-gradient-10" x1="586.69" y1="718.05" x2="44.6" y2="439.74" xlink:href="#linear-gradient"/><linearGradient id="linear-gradient-11" x1="589.99" y1="711.63" x2="47.9" y2="433.31" xlink:href="#linear-gradient"/><linearGradient id="linear-gradient-12" x1="607.62" y1="677.29" x2="65.53" y2="398.97" xlink:href="#linear-gradient"/><linearGradient id="linear-gradient-13" x1="608.54" y1="675.49" x2="66.45" y2="397.17" xlink:href="#linear-gradient"/><linearGradient id="linear-gradient-14" x1="618.43" y1="656.23" x2="76.34" y2="377.91" xlink:href="#linear-gradient"/><linearGradient id="linear-gradient-15" x1="594.61" y1="702.61" x2="52.53" y2="424.3" xlink:href="#linear-gradient"/><linearGradient id="linear-gradient-16" x1="613.18" y1="666.45" x2="71.09" y2="388.14" xlink:href="#linear-gradient"/><linearGradient id="linear-gradient-17" x1="628.95" y1="635.74" x2="86.86" y2="357.43" xlink:href="#linear-gradient"/><linearGradient id="linear-gradient-18" x1="606.82" y1="678.84" x2="64.73" y2="400.52" xlink:href="#linear-gradient"/><linearGradient id="linear-gradient-19" x1="628.21" y1="637.18" x2="86.12" y2="358.86" xlink:href="#linear-gradient"/><linearGradient id="linear-gradient-20" x1="669.69" y1="556.39" x2="127.6" y2="278.07" xlink:href="#linear-gradient"/><linearGradient id="linear-gradient-21" x1="660.04" y1="575.18" x2="117.95" y2="296.86" xlink:href="#linear-gradient"/><linearGradient id="linear-gradient-22" x1="661.83" y1="571.69" x2="119.75" y2="293.37" xlink:href="#linear-gradient"/><linearGradient id="linear-gradient-23" x1="653.01" y1="588.87" x2="110.92" y2="310.55" xlink:href="#linear-gradient"/><linearGradient id="linear-gradient-24" x1="675.3" y1="545.45" x2="133.22" y2="267.13" xlink:href="#linear-gradient"/><linearGradient id="linear-gradient-25" x1="689.65" y1="517.51" x2="147.56" y2="239.19" xlink:href="#linear-gradient"/><linearGradient id="linear-gradient-26" x1="656.85" y1="581.4" x2="114.76" y2="303.08" xlink:href="#linear-gradient"/><linearGradient id="linear-gradient-27" x1="678.75" y1="538.73" x2="136.67" y2="260.41" xlink:href="#linear-gradient"/><linearGradient id="linear-gradient-28" x1="704.15" y1="489.27" x2="162.06" y2="210.95" xlink:href="#linear-gradient"/><linearGradient id="linear-gradient-29" x1="712.3" y1="473.39" x2="170.22" y2="195.07" xlink:href="#linear-gradient"/><linearGradient id="linear-gradient-30" x1="696.48" y1="504.21" x2="154.39" y2="225.89" xlink:href="#linear-gradient"/><linearGradient id="linear-gradient-31" x1="702.28" y1="492.91" x2="160.19" y2="214.6" xlink:href="#linear-gradient"/><linearGradient id="linear-gradient-32" x1="707.41" y1="482.92" x2="165.32" y2="204.61" xlink:href="#linear-gradient"/><linearGradient id="linear-gradient-33" x1="601.53" y1="689.15" x2="59.44" y2="410.83" xlink:href="#linear-gradient"/><linearGradient id="linear-gradient-34" x1="632.4" y1="629.01" x2="90.31" y2="350.7" xlink:href="#linear-gradient"/><linearGradient id="linear-gradient-35" x1="640.98" y1="612.3" x2="98.9" y2="333.98" xlink:href="#linear-gradient"/><linearGradient id="linear-gradient-36" x1="653.97" y1="586.99" x2="111.89" y2="308.68" xlink:href="#linear-gradient"/><linearGradient id="linear-gradient-37" x1="665.44" y1="564.67" x2="123.35" y2="286.35" xlink:href="#linear-gradient"/><linearGradient id="linear-gradient-38" x1="668.55" y1="558.61" x2="126.46" y2="280.29" xlink:href="#linear-gradient"/><linearGradient id="linear-gradient-39" x1="680.62" y1="535.1" x2="138.53" y2="256.78" xlink:href="#linear-gradient"/><linearGradient id="linear-gradient-40" x1="688.25" y1="520.24" x2="146.16" y2="241.92" xlink:href="#linear-gradient"/><linearGradient id="linear-gradient-41" x1="699.9" y1="497.54" x2="157.81" y2="219.23" xlink:href="#linear-gradient"/><linearGradient id="linear-gradient-42" x1="708.54" y1="480.71" x2="166.45" y2="202.39" xlink:href="#linear-gradient"/><linearGradient id="linear-gradient-43" x1="721.57" y1="455.34" x2="179.48" y2="177.02" xlink:href="#linear-gradient"/></defs><title>Cablehauntlogo</title><path class="cls-1" d="M364.75,599.57a159.64,159.64,0,0,0,36.73-9.16,2.27,2.27,0,0,1,2.69.69,2.08,2.08,0,0,1-1.15,3.09,163.13,163.13,0,0,1-37.66,9.41,2.18,2.18,0,0,1-2.43-1.3A2.13,2.13,0,0,1,364.75,599.57Z"/><path class="cls-2" d="M340.49,601.16c4.19-.15,8.38-.11,12.57-.44a2.18,2.18,0,0,1,2.32,1.43,2.1,2.1,0,0,1-2,2.63c-4.29.35-8.55.31-12.83.46a2.26,2.26,0,0,1-2.24-1.69A2,2,0,0,1,340.49,601.16Z"/><path class="cls-3" d="M333.4,574.49a99,99,0,0,0,9.92.25c3.35-.1,6.71-.12,10-.48l5-.4,4.91-.68c3.3-.37,6.5-1.07,9.72-1.71a2.05,2.05,0,0,1,2.29,1.43,1.91,1.91,0,0,1-1.35,2.54c-3.31.66-6.61,1.38-10,1.77l-5,.7-5.1.42c-3.39.36-6.82.39-10.25.49s-6.8-.13-10.19-.25a2,2,0,0,1-1.85-1.93A2,2,0,0,1,333.4,574.49Z"/><path class="cls-4" d="M205.86,544.09a155.39,155.39,0,0,0,47.37,45.09A161.37,161.37,0,0,0,314.43,611c1.66.25,2.9,1.3,2.76,2.37s-1.62,1.74-3.32,1.49a165.4,165.4,0,0,1-62.67-22.4,159.6,159.6,0,0,1-48.56-46.21c-1-1.43-1.1-3.07-.2-3.65S204.87,542.71,205.86,544.09Z"/><path class="cls-5" d="M233.28,538.33a131.08,131.08,0,0,0,45.66,35.74,141.51,141.51,0,0,0,56.63,13.22,2.1,2.1,0,0,1,2,2.14,2,2,0,0,1-2.09,1.94,145.34,145.34,0,0,1-58.24-13.62,135.08,135.08,0,0,1-47.09-36.85,2,2,0,0,1,.32-2.86A2.1,2.1,0,0,1,233.28,538.33Z"/><path class="cls-6" d="M245.36,514.56a107.51,107.51,0,0,0,34.14,32.85A113.07,113.07,0,0,0,325,562.73a2,2,0,0,1,1.45,2.28,1.79,1.79,0,0,1-1.92,1.77,116.92,116.92,0,0,1-47.14-15.88,111.56,111.56,0,0,1-35.45-34.11c-.59-.74-.11-1.95.82-2.53A1.92,1.92,0,0,1,245.36,514.56Z"/><path class="cls-7" d="M272.56,585.07c6.91,3.63,14.34,6,21.66,8.54l11.28,2.81,2.83.69c.94.19,1.9.3,2.86.45l5.73.84a2.16,2.16,0,0,1,1.9,2.34,2.09,2.09,0,0,1-2.47,1.7l-5.88-.86c-1-.16-2-.27-2.94-.46l-2.9-.71-11.58-2.89c-7.52-2.63-15.15-5-22.26-8.77a2.1,2.1,0,0,1-1.12-2.8A2.18,2.18,0,0,1,272.56,585.07Z"/><path class="cls-8" d="M234.47,558.39l7,6.49c2.35,2.14,5,3.91,7.5,5.87,4.91,4.06,10.52,7.09,15.91,10.44a2.26,2.26,0,0,1,.93,2.9,2,2,0,0,1-2.92.66c-5.55-3.43-11.31-6.56-16.37-10.73-2.57-2-5.29-3.84-7.71-6l-7.18-6.68a2.05,2.05,0,0,1-.19-3A2.23,2.23,0,0,1,234.47,558.39Z"/><path class="cls-9" d="M218.52,539.68l3.75,5.22c1.32,1.68,2.79,3.24,4.18,4.87a2,2,0,1,1-3.09,2.66c-1.43-1.67-2.94-3.28-4.3-5l-3.85-5.36a2.1,2.1,0,0,1,.36-3A2.16,2.16,0,0,1,218.52,539.68Z"/><path class="cls-10" d="M271,555.76a118,118,0,0,0,40.29,16.45,2.06,2.06,0,0,1,1.64,2.27,1.85,1.85,0,0,1-2.39,1.26A121.63,121.63,0,0,1,269,558.8a1.86,1.86,0,0,1-.79-2.58A2,2,0,0,1,271,555.76Z"/><path class="cls-11" d="M235.57,519.94a123.65,123.65,0,0,0,26,28.54,1.91,1.91,0,0,1,.19,2.7,2,2,0,0,1-2.73.5,128.31,128.31,0,0,1-26.87-29.53,2,2,0,0,1,.81-2.7A1.85,1.85,0,0,1,235.57,519.94Z"/><path class="cls-12" d="M184.73,398.78a174.36,174.36,0,0,0,10.08,126.56c.67,1.56.59,3.15-.35,3.65s-2.45-.32-3.13-1.91A178.14,178.14,0,0,1,181,397.62c.6-1.65,1.91-2.7,2.93-2.35S185.31,397.18,184.73,398.78Z"/><path class="cls-13" d="M206.44,416.78A150.4,150.4,0,0,0,205.05,475a60.87,60.87,0,0,0,1.5,7.17l1.69,7.13c1.34,4.69,3.08,9.26,4.6,13.9,2,4.42,3.92,8.95,6.13,13.29l3.66,6.34A51.32,51.32,0,0,0,226.5,529a2,2,0,0,1-.51,2.79,2.08,2.08,0,0,1-2.88-.51,54.64,54.64,0,0,1-4-6.39l-3.76-6.53c-2.29-4.47-4.21-9.12-6.31-13.68-1.57-4.77-3.36-9.48-4.75-14.31l-1.73-7.33a63.86,63.86,0,0,1-1.54-7.37,154.15,154.15,0,0,1,1.44-59.84,2.07,2.07,0,0,1,2.49-1.51A2,2,0,0,1,206.44,416.78Z"/><path class="cls-14" d="M232.59,411.5a120.11,120.11,0,0,0-5.53,48.3c.33,4.12,1.11,8.15,1.58,12.24.83,4,1.88,7.95,2.76,11.94,1.4,3.81,2.54,7.72,4,11.48l2.51,5.51a39.33,39.33,0,0,0,2.66,5.41,1.83,1.83,0,0,1-1,2.41,1.93,1.93,0,0,1-2.64-.48,43.56,43.56,0,0,1-2.76-5.61L231.64,497c-1.53-3.89-2.73-7.93-4.16-11.88-.92-4.12-2-8.2-2.85-12.34-.5-4.22-1.29-8.39-1.64-12.63a124.28,124.28,0,0,1,5.73-49.94,2,2,0,0,1,2.53-.92A1.83,1.83,0,0,1,232.59,411.5Z"/><path class="cls-15" d="M192.41,476.13a159.19,159.19,0,0,0,14.19,44.06,2.2,2.2,0,0,1-.81,2.89A2.08,2.08,0,0,1,203,522a163.31,163.31,0,0,1-14.58-45.23,2.16,2.16,0,0,1,1.71-2.51A2.09,2.09,0,0,1,192.41,476.13Z"/><path class="cls-16" d="M191.29,430a74.45,74.45,0,0,0-.76,9.42l-.46,9.43.42,9.41a77.65,77.65,0,0,0,.74,9.38,2.08,2.08,0,0,1-1.73,2.41,2.17,2.17,0,0,1-2.33-1.95,79.58,79.58,0,0,1-.75-9.62l-.43-9.63.47-9.67a80.1,80.1,0,0,1,.77-9.66,2.19,2.19,0,0,1,2.36-1.94A2.08,2.08,0,0,1,191.29,430Z"/><path class="cls-17" d="M196.13,406c-1,4.14-2.23,8.26-3.08,12.43a2.05,2.05,0,0,1-2.34,1.79,2.22,2.22,0,0,1-1.67-2.58c.88-4.28,2.11-8.51,3.17-12.77a2,2,0,0,1,2.52-1.57A2.22,2.22,0,0,1,196.13,406Z"/><path class="cls-18" d="M215.38,457.69A136.37,136.37,0,0,0,225,500.58a1.89,1.89,0,0,1-.82,2.57A2,2,0,0,1,221.7,502a140,140,0,0,1-9.92-44,2,2,0,0,1,1.71-2.2A1.94,1.94,0,0,1,215.38,457.69Z"/><path class="cls-19" d="M222.35,407.18a68,68,0,0,0-2.74,9.33,65.51,65.51,0,0,0-2.08,9.53l-1.44,9.68-.47,9.83a2.06,2.06,0,0,1-2.14,1.81,1.86,1.86,0,0,1-1.94-1.91l.49-10.12c.44-3.34,1-6.66,1.48-10a68.47,68.47,0,0,1,2.15-9.84,70.65,70.65,0,0,1,2.83-9.64,2,2,0,0,1,2.57-1.06A1.91,1.91,0,0,1,222.35,407.18Z"/><path class="cls-20" d="M289.09,294.91a162.63,162.63,0,0,0-56.75,31.68,157.45,157.45,0,0,0-39.54,51.94c-.75,1.53-2.14,2.42-3.13,2s-1.16-2.06-.39-3.64a161.22,161.22,0,0,1,40.52-53.23,166.53,166.53,0,0,1,58.11-32.44c1.64-.56,3.22-.17,3.52.86S290.69,294.37,289.09,294.91Z"/><path class="cls-21" d="M286.75,322.81a137,137,0,0,0-47.88,32.88,132.29,132.29,0,0,0-29.47,50,2.09,2.09,0,0,1-2.54,1.32,2,2,0,0,1-1.35-2.56,136.35,136.35,0,0,1,30.39-51.52A141.06,141.06,0,0,1,285.22,319a2,2,0,0,1,2.65,1.16A2.06,2.06,0,0,1,286.75,322.81Z"/><path class="cls-22" d="M306.14,341.2a114.41,114.41,0,0,0-42,23.17,109,109,0,0,0-28.2,38.27,2.08,2.08,0,0,1-3.74-1.62,112.86,112.86,0,0,1,29.26-39.73,118.59,118.59,0,0,1,43.55-24c.89-.34,1.92.46,2.21,1.51A1.91,1.91,0,0,1,306.14,341.2Z"/><path class="cls-23" d="M230.36,346.24a137.7,137.7,0,0,0-26.21,38.37,2.21,2.21,0,0,1-2.82,1.13,2.07,2.07,0,0,1-.87-2.86,141.49,141.49,0,0,1,26.94-39.46,2.1,2.1,0,0,1,3-.2A2.16,2.16,0,0,1,230.36,346.24Z"/><path class="cls-24" d="M267.24,318.06,259,322.8a34.74,34.74,0,0,0-4,2.6l-3.87,2.75c-5.31,3.47-10,7.82-14.75,12a2.25,2.25,0,0,1-3,0,2,2,0,0,1,.27-3c4.92-4.27,9.7-8.72,15.15-12.3l4-2.83a37.54,37.54,0,0,1,4.08-2.66l8.45-4.87a2,2,0,0,1,2.89.7A2.22,2.22,0,0,1,267.24,318.06Z"/><path class="cls-25" d="M289.71,308.3l-6,2.1c-2,.72-3.9,1.71-5.86,2.56a2,2,0,1,1-1.64-3.74c2-.87,4-1.88,6-2.62l6.2-2.16a2.12,2.12,0,0,1,2.76,1.21A2.17,2.17,0,0,1,289.71,308.3Z"/><path class="cls-26" d="M258.76,353.66a118.09,118.09,0,0,0-27.93,33.25,2,2,0,0,1-2.55.92,1.9,1.9,0,0,1-.6-2.7,121.65,121.65,0,0,1,28.78-34.25,1.86,1.86,0,0,1,2.7,0A2,2,0,0,1,258.76,353.66Z"/><path class="cls-27" d="M303.77,330.29a133,133,0,0,0-35.17,16.57,1.9,1.9,0,0,1-2.64-.62,2,2,0,0,1,.36-2.76,137.06,137.06,0,0,1,36.31-17.11A2.05,2.05,0,0,1,305,327.9,1.86,1.86,0,0,1,303.77,330.29Z"/><path class="cls-28" d="M357.91,300.83l-5.77-.59c-1.92-.19-3.86-.17-5.78-.26l-5.79-.2c-1.93,0-3.87.16-5.8.24l-5.79.27a48.6,48.6,0,0,0-5.78.47l-11.5,1.65a2.18,2.18,0,0,1-2.53-1.59A2.07,2.07,0,0,1,311,298.4l11.8-1.7a49,49,0,0,1,5.93-.48l5.94-.28c2-.08,4-.22,5.95-.24l5.93.2c2,.09,4,.08,5.93.27l5.92.6a2.09,2.09,0,0,1,2,2.26A2.18,2.18,0,0,1,357.91,300.83Z"/><path class="cls-29" d="M402.61,312.63A156.7,156.7,0,0,0,366.4,302a2.15,2.15,0,0,1-1.83-2.38,2.09,2.09,0,0,1,2.51-1.65,161.51,161.51,0,0,1,37.14,10.9,2.11,2.11,0,0,1,1.21,2.75A2.13,2.13,0,0,1,402.61,312.63Z"/><path class="cls-30" d="M369.33,327.91c-14.31-3.42-29.31-3.78-43.9-2.33a1.91,1.91,0,0,1-2.26-1.5A2,2,0,0,1,325,322c15-1.49,30.38-1.11,45.08,2.4a2,2,0,0,1,1.63,2.24A1.93,1.93,0,0,1,369.33,327.91Z"/><path class="cls-31" d="M447.51,354.84a31.58,31.58,0,0,1-18.29,8.53c-6.38.73-12.44-.45-17.4-4a126.42,126.42,0,0,0-46.66-20.56,134,134,0,0,0-25.41-2.55l-6.37.32A49.84,49.84,0,0,0,327,337l-6.3.91-3.15.43-3.08.76a2.07,2.07,0,0,1-.81-4c3.47-1.05,7.12-1.22,10.68-1.83a78.17,78.17,0,0,1,10.82-.89c1.81-.06,3.62-.22,5.44-.24l5.46.2c3.66,0,7.23.63,10.86.9a127.62,127.62,0,0,1,41.32,13.08l0,0,.17.09c2.32,1.2,4.59,2.52,6.87,3.82a2.78,2.78,0,0,0,2.34.25,3.82,3.82,0,0,0,2.08-1.63,3.34,3.34,0,0,0-.82-4.65c-2.4-1.36-4.79-2.76-7.24-4l-.3-.13a130.84,130.84,0,0,0-21.5-8.84,2,2,0,0,1,1.14-3.91,134.82,134.82,0,0,1,22.35,9.18h0l.16.08c1.24.58,2.4,1.31,3.6,2a3.91,3.91,0,0,0,3.1.29,4.6,4.6,0,0,0,2.57-2.05,4.12,4.12,0,0,0-1.49-5.76,144.42,144.42,0,0,0-55.63-17.66A140.74,140.74,0,0,0,297.61,319a2,2,0,0,1-2.52-1.29,2.08,2.08,0,0,1,1.31-2.6,68.08,68.08,0,0,1,8.09-2.21c2.73-.64,5.44-1.36,8.17-1.93l8.31-1.19a60,60,0,0,1,8.34-.88,149.18,149.18,0,0,1,95.46,25.58,4.16,4.16,0,0,0,5.71-1l.29-.41a4.07,4.07,0,0,0-1.2-5.73,157.81,157.81,0,0,0-17.45-10.25,2.21,2.21,0,0,1-1.21-2.66,2.1,2.1,0,0,1,3-1c2.72,1.28,5.29,2.82,7.91,4.27a5.42,5.42,0,0,0,3.58.61,4.23,4.23,0,0,0,2.83-1.9,4.59,4.59,0,0,0-2-6.32,166.22,166.22,0,0,0-27.47-12.81c-4.73-1.85-9.65-3.17-14.52-4.62-4.95-1.16-9.87-2.46-14.91-3.19A171.94,171.94,0,0,0,339,287c-5.07.22-10.15.44-15.21.74l-15.11,2.17c-1.65.3-3.16-.18-3.38-1.25s1-2.27,2.65-2.58A175.95,175.95,0,0,1,442.62,316a28.15,28.15,0,0,1,11.93,19.57A23.16,23.16,0,0,1,447.51,354.84Z"/><polygon class="cls-32" points="407.49 328.94 407.32 328.86 407.32 328.85 407.49 328.94"/><path class="cls-33" d="M334.57,563.42l5.78.29,6-.17a57.91,57.91,0,0,0,5.92-.34c1.95-.18,3.93-.27,5.86-.52A132.82,132.82,0,0,0,380.6,558a106.61,106.61,0,0,0,38.94-21.28,1.88,1.88,0,0,1,2.58.44,1.9,1.9,0,0,1,.07,2.67c-.44.4-.9.76-1.36,1.13-3.25,2.72-3.68,8.12-.71,12.35l.59.83a8.81,8.81,0,0,0,11.14,3,9.16,9.16,0,0,0,1.57-1c1.09-.81,3.07-2.67,4.87-4.22l3.2-3,.34-.34c1-.94,2-2,2.95-3a2.06,2.06,0,0,1,2.88,0,2,2,0,0,1,.64,1.42,2.07,2.07,0,0,1-.58,1.46c-1.17,1.19-2.32,2.41-3.55,3.55l-3.37,3.09-5,4.41a10.82,10.82,0,0,0-1.27,13.89l.47.65c3.24,4.65,10.39,5.3,15.53,1-1.89,1.53-3.77,3.08-5.7,4.57a6.29,6.29,0,0,0,.67-.48c2-1.65,4.12-3.27,6.11-5a2.18,2.18,0,0,1,3,0,2.2,2.2,0,0,1-.46,3.06,159.52,159.52,0,0,1-56.46,31.27,173.34,173.34,0,0,1-31.1,6.81c-2.61.41-5.2.64-7.8.84s-5.2.47-7.79.59c-5.18.08-10.25.48-15.59.09-1.7-.08-3-1-3-2.09s1.44-1.88,3.1-1.81a191.92,191.92,0,0,0,39.1-2.76A165,165,0,0,0,413,598.52l.23-.1,4.89-2.22c2.39-1.2,3.45-3.88,2.38-5.88l-.24-.46a4.44,4.44,0,0,0-6-1.57l-4.44,2a2.22,2.22,0,0,1-2.89-.74,2.15,2.15,0,0,1,1.12-2.94l1.74-.79a4.66,4.66,0,0,0,2.41-2.48,4.15,4.15,0,0,0-.51-3.89,4.67,4.67,0,0,0-5.62-1.36l-1.16.53,0,0a153.87,153.87,0,0,1-57.77,12.79,2.09,2.09,0,0,1-2.12-1.57,2,2,0,0,1,1.91-2.5l3.41-.1,3.39-.28c2.26-.2,4.53-.34,6.78-.59,4.49-.64,9-1.17,13.42-2.17a138.46,138.46,0,0,0,25.94-7.81,3.68,3.68,0,0,0,1.84-4.94l-.44-1a3.67,3.67,0,0,0-4.67-2l-5.4,2.09c-1.81.68-3.68,1.21-5.52,1.83a1.9,1.9,0,0,1-2.5-1.09,2,2,0,0,1,1.43-2.36c1.76-.6,3.56-1.1,5.29-1.75l5.19-2a3.62,3.62,0,0,0,1.61-4.89,4.08,4.08,0,0,0-1.89-2,3,3,0,0,0-2.47-.12,125.27,125.27,0,0,1-28,7.77c-2.47.31-4.9.74-7.38,1l-7.48.63-7.59.21c-2.55.15-4.94-.19-7.42-.25a1.85,1.85,0,0,1-1.69-1.71A2,2,0,0,1,334.57,563.42Z"/><path class="cls-34" d="M310.49,464.72l7.29,8.58c-5.16,5.44-11.71,7.19-18.26,7.19-14.47,0-22.86-11.34-22.86-22,0-12.35,9.4-22.4,22.77-22.4,7.38,0,13.74,2.3,18.72,8.2l-8.3,8.49c-1.38-1.85-4.89-4.8-8.67-4.8a10.33,10.33,0,0,0,.19,20.66A13.62,13.62,0,0,0,310.49,464.72Z"/><path class="cls-35" d="M363.78,479.2h-8.95l-3.22-4c-2.58,3.32-7.75,5.26-14.2,5.26-8.76,0-14.66-5.63-14.66-13.37,0-8.3,6.46-13.74,15.31-13.74a22.64,22.64,0,0,1,12.17,3.51v-1.3c0-6-5.08-8.29-9.69-8.29a26.71,26.71,0,0,0-9.21,1.57l-2.87-10.52a48.68,48.68,0,0,1,14.2-2.21c13.47.19,21.3,8.21,21.21,20Zm-13.55-14a12.92,12.92,0,0,0-8.39-2.67c-2.86,0-4.89,2.12-4.89,4.06s2.67,3.68,5.07,3.68c3.23,0,6.73-1.56,8.21-3.59Z"/><path class="cls-36" d="M385.25,474.31l-3.68,4.89h-8.85V414.47l13-1.1h1.38v28.49c2.3-3.51,7.93-5.81,13.28-5.81,9.4,0,18.53,8,18.53,22.13s-9,22.31-19.55,22.31C393.55,480.49,387.56,477.72,385.25,474.31Zm19-16.13c0-7.56-4.71-10.7-8.58-10.7-4.05,0-8.39,3.23-8.39,10.7s4.71,10.88,8.58,10.88C399.91,469.06,404.25,465.55,404.25,458.18Z"/><path class="cls-37" d="M442,479.2H427.66V414.47l13.09-1.1H442Z"/><path class="cls-38" d="M488,466.11l5,9.86c-4.7,3.5-12.35,4.52-17.7,4.52-15.12,0-24.43-10.24-24.43-22.13,0-14.2,10.51-22.31,21.85-22.31,11.52,0,22.77,8.76,21.29,25.81H465.37c.55,3.51,4.88,7.2,11.7,7.2A23.58,23.58,0,0,0,488,466.11ZM466,453.57h13.55a6.68,6.68,0,0,0-6.82-6.18A7,7,0,0,0,466,453.57Z"/><path class="cls-39" d="M512.2,443.79c2.67-3.59,8-6.27,13.45-6.27,9,0,16.69,6.27,16.69,16.78v24.9h-9.12V455.5A10.25,10.25,0,0,0,522.8,445c-4.25,0-10.6,3.41-10.6,9.87V479.2h-9.13V414.47l8.29-1.1h.84Z"/><path class="cls-40" d="M589.54,479.2H584.1l-2.21-5.44c-2.86,4-8.11,6.64-15.4,6.64-9.31,0-15.4-5.9-15.4-13.37,0-8.39,6.55-13.83,15.86-13.83a21.5,21.5,0,0,1,13.92,5v-2c0-6.82-5-11.34-11.43-11.34A26.23,26.23,0,0,0,558.75,447l-2.22-6.82a39.71,39.71,0,0,1,13.93-2.68c11.89.19,19.27,7.66,19.17,18.9Zm-8.67-14.94A17,17,0,0,0,569,459.37c-4.88,0-8.76,2.95-8.76,7.2s4.06,7.1,8.58,7.1c5.35,0,11.34-3.88,12.07-8.4Z"/><path class="cls-41" d="M631.21,473.85c-2.77,4-8.21,6.64-14,6.64-9.4,0-17-6.64-17-16.69V438.72h9.22v23.7c0,6.91,5,10.51,10.23,10.51,4.43,0,10.51-3.6,10.51-10.42V438.72h9.13V479.2h-5.9Z"/><path class="cls-42" d="M659.78,444.16c2.68-4,8.21-6.64,14-6.64,9.4,0,17.15,6.64,17.15,16.69v25h-9.13V455.5A10.25,10.25,0,0,0,671.4,445c-4.43,0-10.6,3.6-10.6,10.42V479.2h-9.13V438.72h5.44Z"/><path class="cls-43" d="M714.82,446v19.08c0,5.35,3.32,7.1,6.73,7.1a15.1,15.1,0,0,0,4-.55l1.11,7.28a42.18,42.18,0,0,1-7.47.83c-9.22,0-13.46-5.9-13.46-14.94V446h-7.38v-.93l.93-6.36h6.45V425.45l8.3-1.3h.83v14.57h11.52V446Z"/></svg>