<?xml version="1.0" standalone="no"?>
<!DOCTYPE svg PUBLIC "-//W3C//DTD SVG 20010904//EN"
 "http://www.w3.org/TR/2001/REC-SVG-20010904/DTD/svg10.dtd">
<svg version="1.0" xmlns="http://www.w3.org/2000/svg"
 width="337.000000pt" height="337.000000pt" viewBox="0 0 337.000000 337.000000"
 preserveAspectRatio="xMidYMid meet">
<metadata>
Created by potrace 1.11, written by Peter Selinger 2001-2013
</metadata>
<g transform="translate(0.000000,337.000000) scale(0.100000,-0.100000)"
fill="#000000" stroke="none">
<path d="M1690 3310 c-107 -13 -150 -25 -150 -40 0 -17 31 -18 117 -5 119 18
400 13 513 -9 180 -36 357 -98 495 -172 69 -38 85 -56 69 -81 -17 -28 -51 -27
-99 2 -25 14 -50 23 -55 20 -23 -14 -6 -34 62 -71 120 -66 149 -106 97 -134
-14 -8 -32 -2 -83 30 -191 116 -401 190 -616 215 -57 6 -256 7 -300 1 -14 -2
-48 -7 -75 -10 -71 -10 -208 -45 -219 -56 -7 -7 -6 -14 1 -21 9 -9 26 -8 70 4
204 57 435 64 648 21 99 -20 268 -79 350 -122 77 -41 93 -68 54 -95 -20 -14
-25 -13 -73 12 -28 16 -91 43 -139 61 -73 28 -90 32 -97 20 -13 -21 -6 -26 54
-45 29 -9 95 -38 147 -64 96 -49 117 -73 84 -97 -14 -10 -32 -5 -113 36 -202
100 -346 131 -582 126 -166 -4 -240 -16 -240 -40 0 -22 9 -23 93 -8 77 13 325
13 382 -1 11 -3 40 -10 65 -16 125 -29 249 -83 399 -175 84 -50 86 -51 165
-51 65 0 91 5 128 23 101 50 154 136 146 234 -10 115 -64 177 -248 286 -151
89 -356 165 -545 202 -121 24 -386 34 -505 20z"/>
<path d="M1312 3220 c-29 -11 -99 -41 -155 -69 -307 -149 -568 -403 -716 -698
-36 -72 -35 -69 -17 -76 10 -4 28 17 57 71 45 82 126 206 167 256 73 88 238
238 327 298 110 73 244 142 345 178 68 24 90 37 90 51 0 14 -40 9 -98 -11z"/>
<path d="M1685 3183 c-93 -14 -117 -25 -98 -44 8 -8 31 -8 85 2 40 6 147 13
237 13 116 1 165 4 168 13 2 6 -6 14 -18 18 -40 13 -281 11 -374 -2z"/>
<path d="M2132 3172 c-6 -2 -12 -10 -12 -17 0 -14 14 -21 60 -29 53 -9 155
-38 237 -68 68 -25 87 -28 93 -17 5 7 7 16 4 20 -14 23 -352 121 -382 111z"/>
<path d="M1310 3087 c-32 -13 -56 -29 -58 -40 -4 -22 11 -22 78 4 58 22 80 36
80 50 0 15 -43 9 -100 -14z"/>
<path d="M1099 2982 c-127 -74 -267 -190 -255 -210 11 -19 21 -15 78 34 47 40
163 121 240 168 17 10 25 22 22 31 -8 21 -11 20 -85 -23z"/>
<path d="M1262 2930 c-293 -141 -536 -402 -653 -699 -22 -55 -34 -100 -29
-105 16 -16 36 2 49 45 26 88 106 237 180 334 116 155 273 286 445 375 113 58
128 68 120 81 -9 15 -27 10 -112 -31z"/>
<path d="M1747 2943 c-19 -3 -27 -10 -25 -21 2 -13 14 -15 63 -13 133 8 269 0
350 -19 25 -6 44 -5 49 0 29 29 -79 51 -264 55 -80 1 -158 0 -173 -2z"/>
<path d="M1449 2876 c-128 -46 -289 -135 -289 -161 0 -23 25 -18 78 15 63 39
205 105 260 121 29 8 42 17 40 27 -5 23 -18 23 -89 -2z"/>
<path d="M1475 2771 c-90 -36 -208 -94 -225 -111 -3 -3 -23 -17 -45 -31 -63
-41 -189 -163 -243 -237 -62 -83 -136 -218 -127 -232 13 -21 33 -9 51 33 58
131 205 304 339 399 74 53 223 131 289 150 39 12 56 32 40 48 -5 4 -40 -4 -79
-19z"/>
<path d="M737 2678 c-104 -119 -224 -321 -207 -347 12 -21 25 -7 70 77 49 91
109 177 174 248 46 52 58 84 32 84 -8 0 -39 -28 -69 -62z"/>
<path d="M1055 2648 c-97 -76 -265 -288 -265 -334 0 -28 24 -9 65 53 55 83
108 146 185 220 45 44 61 66 54 73 -7 7 -19 4 -39 -12z"/>
<path d="M341 2213 c-17 -33 -61 -249 -69 -342 -13 -151 -6 -322 19 -466 30
-173 137 -475 168 -475 20 0 16 29 -14 100 -53 126 -107 304 -120 400 -15 106
-19 161 -19 275 0 184 18 321 63 474 6 19 8 38 5 42 -8 14 -23 10 -33 -8z"/>
<path d="M445 2138 c-13 -41 -25 -97 -25 -120 0 -45 28 -34 40 15 6 23 15 56
20 74 4 17 5 34 2 37 -10 10 -33 6 -37 -6z"/>
<path d="M701 2122 c-18 -33 -47 -156 -56 -236 -14 -126 -14 -147 2 -153 21
-8 30 11 32 69 1 66 18 168 42 251 19 64 19 87 -1 87 -5 0 -14 -8 -19 -18z"/>
<path d="M795 2067 c-42 -101 -64 -366 -43 -530 20 -155 108 -407 143 -407 25
0 25 17 -2 71 -78 162 -108 306 -107 519 1 143 5 178 26 260 14 52 23 101 21
108 -9 21 -24 13 -38 -21z"/>
<path d="M552 2038 c-5 -7 -13 -35 -17 -63 -4 -27 -10 -59 -12 -70 -3 -11 -6
-85 -8 -165 -6 -267 41 -479 156 -700 65 -125 84 -149 101 -132 11 11 9 19 -6
45 -104 176 -164 334 -195 514 -15 83 -18 143 -16 263 4 149 6 179 25 262 9
42 -8 69 -28 46z"/>
<path d="M406 1912 c-12 -20 -16 -75 -17 -209 0 -163 5 -193 33 -193 16 0 18
5 14 33 -5 30 -7 263 -3 336 2 32 -15 53 -27 33z"/>
<path d="M644 1640 c-10 -10 -9 -31 10 -170 12 -81 71 -276 88 -286 19 -12 26
18 12 52 -20 47 -64 221 -70 274 -12 110 -15 125 -22 132 -4 4 -13 3 -18 -2z"/>
<path d="M420 1460 c-12 -7 -12 -18 -1 -77 28 -140 123 -393 148 -393 24 0 21
20 -22 126 -41 101 -76 221 -90 304 -7 42 -16 52 -35 40z"/>
<path d="M930 1062 c0 -42 168 -221 285 -303 135 -95 327 -169 480 -185 52 -6
57 -5 53 12 -2 15 -18 21 -68 30 -164 28 -292 79 -435 173 -79 52 -205 173
-253 244 -33 48 -62 61 -62 29z"/>
<path d="M834 1019 c-3 -6 11 -36 32 -67 48 -70 217 -242 239 -242 31 0 13 32
-51 93 -37 34 -96 99 -131 144 -65 83 -76 92 -89 72z"/>
<path d="M2596 816 c-177 -132 -388 -202 -644 -213 -101 -5 -135 -9 -139 -20
-3 -8 -3 -16 0 -19 11 -11 202 -4 291 11 50 8 129 26 176 41 47 14 99 27 115
28 27 1 30 -2 30 -28 0 -26 -6 -31 -60 -51 -33 -13 -60 -29 -60 -36 0 -18 8
-18 82 5 70 21 93 14 93 -30 0 -18 -10 -26 -57 -44 -121 -46 -263 -76 -413
-89 -60 -5 -75 -9 -78 -23 -9 -49 328 4 530 84 60 24 84 29 97 21 27 -17 25
-50 -3 -69 -14 -9 -26 -23 -26 -30 0 -16 46 -19 55 -4 3 6 19 10 34 10 37 0
58 -41 33 -63 -54 -47 -331 -139 -462 -153 -30 -3 -59 -8 -63 -11 -4 -3 -74
-7 -155 -10 -81 -3 -151 -9 -156 -13 -53 -50 301 -32 529 26 216 56 417 152
581 279 32 25 62 53 67 61 13 23 -19 28 -50 7 -77 -52 -163 -6 -163 88 0 28
12 45 75 106 41 41 75 78 75 83 0 25 -26 18 -63 -17 -79 -73 -95 -84 -126 -89
-26 -4 -38 1 -66 29 -41 41 -47 89 -15 130 11 14 20 30 20 36 0 21 -26 11 -84
-33z"/>
<path d="M815 840 c-9 -15 23 -55 107 -136 169 -162 358 -268 590 -328 109
-29 135 -33 249 -42 50 -4 89 -3 92 3 13 20 -12 31 -88 37 -345 26 -637 166
-874 419 -56 58 -65 64 -76 47z"/>
<path d="M668 828 c-5 -13 50 -95 77 -118 8 -7 22 -9 31 -6 14 5 14 9 3 24 -8
10 -29 40 -48 65 -35 47 -56 58 -63 35z"/>
<path d="M540 786 c0 -25 109 -158 211 -258 119 -117 287 -231 437 -298 180
-81 438 -148 465 -121 16 16 -2 27 -57 35 -211 33 -471 141 -651 271 -109 78
-243 208 -320 310 -52 70 -85 93 -85 61z"/>
<path d="M1184 669 c-9 -16 25 -41 121 -88 136 -68 301 -114 306 -86 2 12 -14
20 -71 35 -78 20 -202 71 -272 111 -74 44 -74 43 -84 28z"/>
<path d="M832 652 c-21 -7 -13 -22 37 -68 96 -87 250 -194 279 -194 33 0 3 35
-70 84 -46 30 -117 83 -158 118 -41 36 -81 63 -88 60z"/>
<path d="M2085 505 c-44 -7 -125 -13 -180 -14 -54 -1 -101 -4 -103 -6 -3 -2
-2 -12 2 -21 6 -15 21 -16 149 -10 172 7 260 24 265 49 4 20 -13 20 -133 2z"/>
<path d="M1196 381 c-21 -33 242 -128 432 -156 38 -6 42 -5 42 14 0 12 -3 21
-7 22 -85 7 -240 49 -354 94 -92 37 -105 40 -113 26z"/>
<path d="M2435 324 c-46 -17 -220 -60 -280 -69 -45 -6 -61 -18 -50 -35 13 -20
157 6 323 59 78 25 83 28 75 46 -6 18 -16 18 -68 -1z"/>
<path d="M1872 224 c-26 -19 14 -32 82 -28 61 4 83 14 71 33 -8 15 -132 10
-153 -5z"/>
</g>
</svg>
